# xmcd
#
# Track frame offsets: 
#        150
#        12754
#        23858
#        35257
#        48613
#        62981
#        77111
#        89349
#        104538
#        117739
#        132000
#        143078
#        157421
#        173177
#        187886
#        200950
#        213351
#        226949
#        239178
#        254551
#        268351
#        283280
#        296495
#        308813
#        322071
#
# Disc length: 4469 seconds
#
# Revision: 1
# Processed by: cddbd v1.5.2PL0 Copyright (c) Steve Scherf et al.
# Submitted via: ExactAudioCopy v1.1
#
DISCID=8f117319
DTITLE=Various Artist - East Virginia Blues
DYEAR=2004
DGENRE=Blues
TTITLE0=The Carter Family - The East Virginia Blues (mono)
TTITLE1=The Monroe Brothers - Will The Circle Be Unbroken (mono)
TTITLE2=Wade Mainer and Zeke Morris - Down In The Willow (mono)
TTITLE3=The Blue Sky Boys - Mary Of The Wild Moor (mono)
TTITLE4=The Carter Family - Wildwood Flower (mono)
TTITLE5=Vernon Dalhart - The Prisoner's Song (mono)
TTITLE6=The Hall Brothers - Constant Sorrow (mono)
TTITLE7=The Blue Sky Boys - In The Hills Of Roane County (mono)
TTITLE8=The Rouse Brothers - Orange Blossom Special (mono)
TTITLE9=G.B. Grayson and Henry Whitter - Tom Dooley (mono)
TTITLE10=Wade Mainer and Zeke Morris - Short Life And It's Trouble (mono
TTITLE10=)
TTITLE11=J.E. Mainer's Mountaineers - The Longest Train (mono)
TTITLE12=Bud Billings and Carson Robison - Birmingham Jail (mono)
TTITLE13=Vernon Dalhart - Wreck Of The Old 97 (mono)
TTITLE14=Jimmie Rodgers - Frankie And Johnny (mono)
TTITLE15=Bill Monroe and His Blue Grass Boys - Mule Skinner Blues (mono)
TTITLE16=Jimmie Davis - She's A Hum Dum Dinger (From Dingersville) (Pa
TTITLE16=rt 2) (mono)
TTITLE17=Riley Puckett - Nobody's Business (mono)
TTITLE18=Cliff Carlisle - That Nasty Swing (mono)
TTITLE19=Roy Shaffer - The Matchbox Blues (mono)
TTITLE20=Gene Autry - Do Right Daddy Blues (mono)
TTITLE21=The Lone Star Cowboys - Just Because (mono)
TTITLE22=The Delmore Brothers - Brown's Ferry Blues (mono)
TTITLE23=Jimmie Rodgers - In The Jailhouse #2 (mono)
TTITLE24=Ernest Tubb - The TB Is Whipping Me (mono)
EXTD=
EXTT0=
EXTT1=
EXTT2=
EXTT3=
EXTT4=
EXTT5=
EXTT6=
EXTT7=
EXTT8=
EXTT9=
EXTT10=
EXTT11=
EXTT12=
EXTT13=
EXTT14=
EXTT15=
EXTT16=
EXTT17=
EXTT18=
EXTT19=
EXTT20=
EXTT21=
EXTT22=
EXTT23=
EXTT24=
PLAYORDER=
